***************************************************************

[IMG]http://www.hotimg.org/images/67363952943939111394.png[/IMG]

***************************************************************

[img]http://www.imagezon3.com/images/maTqu.jpg[/img]

***************************************************************

FILM TITLE: Hugo (2011)

***************************************************************

Genre:  Adventure | Drama | Family   

Rated PG for mild thematic material, some action/peril and smoking

Release: 10 February 2012 (Poland) 

Director: Martin Scorsese

Writer: John Logan (screenplay), Brian Selznick (book)

Stars:  Asa Butterfield, Chloë Grace Moretz and Christopher Lee

Country:  USA

Language:  English

Plot:
Set in 1930s Paris, an orphan who lives in the walls of a train station 
is wrapped up in a mystery involving his late father and an automaton.

IMDB Rating: 8.1/10 from 35,359 users   Metascore: 83/100
 
http://www.imdb.com/title/tt0970179/

****************************************************************

[url=http://www.imagezon3.com/images/qk5F.png][img]http://www.imagezon3.com/images/thumbs/qk5F.png[/img][/url]
[url=http://www.imagezon3.com/images/d1c7l.png][img]http://www.imagezon3.com/images/thumbs/d1c7l.png[/img][/url]
[url=http://www.imagezon3.com/images/lRm0e.png][img]http://www.imagezon3.com/images/thumbs/lRm0e.png[/img][/url]
[url=http://www.imagezon3.com/images/msNhz.png][img]http://www.imagezon3.com/images/thumbs/msNhz.png[/img][/url]
[url=http://www.imagezon3.com/images/9KCby.png][img]http://www.imagezon3.com/images/thumbs/9KCby.png[/img][/url]

****************************************************************

General
Complete name                    : Hugo 2011 720p BDRip XviD ac3 (avi) [GREYSHADOW].avi
Format                           : AVI
Format/Info                      : Audio Video Interleave
Format profile                   : OpenDML
File size                        : 3.69 GiB
Duration                         : 2h 6mn
Overall bit rate                 : 4186 Kbps
Writing library                  : VirtualDub build 32842/release

Video
ID                               : 0
Format                           : MPEG-4 Visual
Format profile                   : Simple@L5
Format settings, BVOP            : No
Format settings, QPel            : No
Format settings, GMC             : No warppoints
Format settings, Matrix          : Default (H.263)
Codec ID                         : XVID
Codec ID/Hint                    : XviD
Duration                         : 2h 6mn
Bit rate                         : 3536 Kbps
Width                            : 1280 pixels
Height                           : 720 pixels
Display aspect ratio             : 16:9
Frame rate                       : 23.976 fps
Color space                      : YUV
Chroma subsampling               : 4:2:0
Bit depth                        : 8 bits
Scan type                        : Progressive
Compression mode                 : Lossy
Bits/(Pixel*Frame)               : 0.160
Stream size                      : 3.12 GiB (84%)
Writing library                  : XviD 64

Audio
ID                               : 1
Format                           : AC-3
Format/Info                      : Audio Coding 3
Mode extension                   : CM (complete main)
Codec ID                         : 2000
Duration                         : 2h 6mn
Bit rate mode                    : Constant
Bit rate                         : 640 Kbps
Channel(s)                       : 6 channels
Channel positions                : Front: L C R, Side: L R, LFE
Sampling rate                    : 48.0 KHz
Bit depth                        : 16 bits
Compression mode                 : Lossy
Stream size                      : 578 MiB (15%)
Alignment                        : Aligned on interleaves
Interleave, duration             : 42 ms (1.00 video frame)
Interleave, preload duration     : 512 ms

****************************************************************

Video Source: Hugo.2011.BluRay.1080p.AVC.DTS-HD.MA7.1-CHDBits (41.6GB)

Thanks: chdbits.org

****************************************************************

I provide a small sample, so please download this to check your 
compatibility first if you are unsure.

****************************************************************

I am providing tutorials here :- 
http://tutorials4all.freeforums.org/index.php?sid=fb109f91dedb2901c4d0b39625c431f7
This is for opening my mkv encodes, remuxing to Bluray for PS3 or mkv or mp4 with 
additional or selected audio or subtitles which I will now start supplying, so if your
fed up finding the right encode to match your player - DO IT YOURSELF - it's simples.

I allow transfer of my encodes to any site, just give me credit (Thanks: GREYSHADOW)

****************************************************************